<?xml version="1.0" encoding="UTF-8" standalone="no"?>
<!-- Uploaded to: SVG Repo, www.svgrepo.com, Generator: SVG Repo Mixer Tools -->

<svg
   width="186.4313"
   height="256.74484"
   viewBox="0 0 119.31604 164.3167"
   data-name="Layer 1"
   id="Layer_1"
   version="1.1"
   sodipodi:docname="asset-scissor-cut-up.svg"
   inkscape:version="1.3.2 (091e20ef0f, 2023-11-25)"
   xmlns:inkscape="http://www.inkscape.org/namespaces/inkscape"
   xmlns:sodipodi="http://sodipodi.sourceforge.net/DTD/sodipodi-0.dtd"
   xmlns="http://www.w3.org/2000/svg"
   xmlns:svg="http://www.w3.org/2000/svg">
  <sodipodi:namedview
     id="namedview9"
     pagecolor="#ffffff"
     bordercolor="#111111"
     borderopacity="1"
     inkscape:showpageshadow="0"
     inkscape:pageopacity="0"
     inkscape:pagecheckerboard="1"
     inkscape:deskcolor="#d1d1d1"
     inkscape:zoom="1.0425"
     inkscape:cx="399.52038"
     inkscape:cy="400"
     inkscape:window-width="1920"
     inkscape:window-height="1032"
     inkscape:window-x="0"
     inkscape:window-y="0"
     inkscape:window-maximized="1"
     inkscape:current-layer="Layer_1" />
  <defs
     id="defs1">
    <style
       id="style1">.cls-1{fill:#999;}.cls-2{fill:#414042;}.cls-3{fill:#231f20;}.cls-4{fill:#b3b3b3;}.cls-5{fill:#ccc;}.cls-6{fill:gray;}</style>
  </defs>
  <title
     id="title1" />
  <g
     id="g9"
     transform="matrix(-0.35721247,0,0,-0.35721247,151.10606,173.60526)">
    <path
       class="cls-1"
       d="m 279.13,285.92 q -32.44,98.67 -64.88,197.36 a 7.78,7.78 0 0 1 -2.86,-1.1 C 189.18,468.27 215.3,337.77 225.48,290 l 41.79,-16.75 z"
       id="path1" />
    <path
       class="cls-2"
       d="m 370.65,30 c -36.95,-7.85 -74.32,20.73 -83.49,63.83 -9.17,43.1 13.37,84.41 50.31,92.27 36.94,7.86 74.33,-20.73 83.5,-63.83 C 430.14,79.17 407.6,37.88 370.65,30 Z m 39.91,90.06 c -10.56,49.6 -49.18,58.46 -70.51,53.94 -31.2,-6.64 -50.23,-41.53 -42.49,-77.93 7.74,-36.4 39.31,-60.53 70.51,-53.9 31.2,6.63 50.23,41.51 42.49,77.91 z"
       id="path2" />
    <path
       class="cls-2"
       d="m 286.35,99.89 c 0.26,-1.2 0.59,-2.39 0.74,-3.61 a 1.84,1.84 0 0 0 0,-0.33 2.73,2.73 0 0 0 0.92,-2.21 16,16 0 0 1 0.07,-2.85 c 0.09,-0.55 0.3,-1 0.39,-1.58 v 0 c 0.34,10.58 2.93,34.84 20.92,57.24 24.55,30.56 59.29,34.67 65.92,35.33 a 33.92,33.92 0 0 0 -6.62,3.33 c -10.89,5.81 -24.85,14 -37.83,27.49 -30.2,31.38 -38.4,67.85 -41,84.25 l -31.15,-26.16 27.48,-170.52 a 3.44,3.44 0 0 0 0.16,-0.38 z"
       id="path3" />
    <path
       class="cls-3"
       d="m 368.45,40.31 c -31.81,-6.76 -64,17.84 -71.88,55 -7.88,37.16 11.5,72.68 43.31,79.44 21.74,4.62 61.14,-4.41 71.88,-54.95 7.89,-37.16 -11.51,-72.73 -43.31,-79.49 z m 32.25,77.08 c -8.68,40.84 -40.51,48.14 -58.08,44.4 -25.7,-5.46 -41.37,-34.19 -35,-64.18 6.37,-29.99 32.38,-49.86 58.08,-44.4 25.7,5.46 41.38,34.2 35,64.18 z"
       id="path4" />
    <path
       class="cls-4"
       d="m 290.09,475.52 c -1.55,4.64 -3.63,7.91 -6.35,9.49 a 8,8 0 0 1 -1.53,0.68 8.54,8.54 0 0 1 -1.37,0.31 c 0,-0.05 0,-0.1 0,-0.15 Q 258.73,409.71 236.6,333.56 229.72,310 222.89,286.5 l 12.29,-12.26 41.18,18.2 c 7.48,42.34 25.07,149.12 13.73,183.08 z"
       id="path5" />
    <path
       class="cls-5"
       d="m 290.09,475.52 c -1.55,4.64 -3.63,7.91 -6.35,9.49 a 8,8 0 0 1 -1.53,0.68 7.52,7.52 0 0 1 -1.41,0.16 Q 258.69,409.71 236.56,333.56 a 9.68,9.68 0 0 1 2.61,-1.19 9,9 0 0 1 1.33,-0.28 9.75,9.75 0 0 1 10.69,6.91 l 38.55,134.45 a 9.69,9.69 0 0 1 0.35,2.07 z"
       id="path6" />
    <path
       class="cls-2"
       d="m 225.49,99.87 c -0.22,-1.2 -0.51,-2.41 -0.62,-3.63 0,-0.11 0,-0.22 0,-0.34 a 2.74,2.74 0 0 1 -0.85,-2.23 15.09,15.09 0 0 0 0,-2.85 c -0.07,-0.56 -0.26,-1.06 -0.33,-1.6 v 0 c -0.71,10.56 -4.15,34.72 -22.91,56.48 -25.6,29.68 -60.46,32.58 -67.11,33 a 34.72,34.72 0 0 1 6.51,3.56 c 10.67,6.19 24.34,14.87 36.83,28.8 29.09,32.41 36,69.14 38,85.63 l 4,-3.11 0.56,-0.44 27.51,-21.51 -21.49,-171.37 a 3.69,3.69 0 0 1 -0.1,-0.39 z"
       id="path7" />
    <path
       class="cls-2"
       d="m 149.19,26.33 c -37.57,4 -64.28,42.68 -59.68,86.5 4.6,43.82 38.79,76.17 76.36,72.17 37.57,-4 64.29,-42.68 59.68,-86.51 C 220.94,54.66 186.76,22.38 149.19,26.33 Z M 215,99.64 c 5.3,50.41 -28.73,70.78 -50.41,73.06 -31.72,3.34 -60.6,-24 -64.48,-61 -3.88,-37 18.67,-69.72 50.4,-73 31.73,-3.28 60.57,23.93 64.49,60.94 z"
       id="path8" />
    <path
       class="cls-3"
       d="m 150.31,37 c -32.5,3.45 -55.62,37 -51.63,74.87 3.99,37.87 33.57,65.88 66.07,62.47 22.2,-2.34 57.06,-23.21 51.63,-74.85 C 212.39,61.58 182.81,33.61 150.31,37 Z m 54.77,63.65 c 4.39,41.72 -23.78,58.58 -41.72,60.47 -26.26,2.76 -50.16,-19.84 -53.38,-50.47 -3.22,-30.63 15.46,-57.65 41.72,-60.44 26.26,-2.79 50.16,19.84 53.38,50.47 z"
       id="path9" />
    <circle
       class="cls-6"
       cx="249.7"
       cy="304.23001"
       r="6.3699999"
       id="circle9" />
  </g>
</svg>
