<?xml version="1.0" encoding="UTF-8"?>
<!-- Uploaded to: SVG Repo, www.svgrepo.com, Generator: SVG Repo Mixer Tools -->
<svg width="800px" height="800px" viewBox="0 0 512 512" data-name="Layer 1" id="Layer_1" xmlns="http://www.w3.org/2000/svg"><defs><style>.cls-1{fill:#999;}.cls-2{fill:#414042;}.cls-3{fill:#231f20;}.cls-4{fill:#b3b3b3;}.cls-5{fill:#ccc;}.cls-6{fill:gray;}</style></defs><title/><path class="cls-1" d="M279.13,285.92q-32.44,98.67-64.88,197.36a7.78,7.78,0,0,1-2.86-1.1C189.18,468.27,215.3,337.77,225.48,290l41.79-16.75Z"/><path class="cls-2" d="M370.65,30c-36.95-7.85-74.32,20.73-83.49,63.83s13.37,84.41,50.31,92.27,74.33-20.73,83.5-63.83S407.6,37.88,370.65,30Zm39.91,90.06C400,169.66,361.38,178.52,340.05,174c-31.2-6.64-50.23-41.53-42.49-77.93s39.31-60.53,70.51-53.9S418.3,83.68,410.56,120.08Z"/><path class="cls-2" d="M286.35,99.89c.26-1.2.59-2.39.74-3.61a1.84,1.84,0,0,0,0-.33,2.73,2.73,0,0,0,.92-2.21,16,16,0,0,1,.07-2.85c.09-.55.3-1,.39-1.58h0c.34,10.58,2.93,34.84,20.92,57.24,24.55,30.56,59.29,34.67,65.92,35.33a33.92,33.92,0,0,0-6.62,3.33c-10.89,5.81-24.85,14-37.83,27.49-30.2,31.38-38.4,67.85-41,84.25l-31.15-26.16,27.48-170.52A3.44,3.44,0,0,0,286.35,99.89Z"/><path class="cls-3" d="M368.45,40.31c-31.81-6.76-64,17.84-71.88,55s11.5,72.68,43.31,79.44c21.74,4.62,61.14-4.41,71.88-54.95C419.65,82.64,400.25,47.07,368.45,40.31Zm32.25,77.08c-8.68,40.84-40.51,48.14-58.08,44.4-25.7-5.46-41.37-34.19-35-64.18S340,47.75,365.7,53.21,407.08,87.41,400.7,117.39Z"/><path class="cls-4" d="M290.09,475.52c-1.55,4.64-3.63,7.91-6.35,9.49a8,8,0,0,1-1.53.68,8.54,8.54,0,0,1-1.37.31c0-.05,0-.1,0-.15q-22.11-76.14-44.24-152.29Q229.72,310,222.89,286.5l12.29-12.26,41.18,18.2C283.84,334.78,301.43,441.56,290.09,475.52Z"/><path class="cls-5" d="M290.09,475.52c-1.55,4.64-3.63,7.91-6.35,9.49a8,8,0,0,1-1.53.68,7.52,7.52,0,0,1-1.41.16q-22.11-76.14-44.24-152.29a9.68,9.68,0,0,1,2.61-1.19,9,9,0,0,1,1.33-.28A9.75,9.75,0,0,1,251.19,339l38.55,134.45A9.69,9.69,0,0,1,290.09,475.52Z"/><path class="cls-2" d="M225.49,99.87c-.22-1.2-.51-2.41-.62-3.63,0-.11,0-.22,0-.34a2.74,2.74,0,0,1-.85-2.23,15.09,15.09,0,0,0,0-2.85c-.07-.56-.26-1.06-.33-1.6h0c-.71,10.56-4.15,34.72-22.91,56.48-25.6,29.68-60.46,32.58-67.11,33a34.72,34.72,0,0,1,6.51,3.56c10.67,6.19,24.34,14.87,36.83,28.8,29.09,32.41,36,69.14,38,85.63l4-3.11.56-.44,27.51-21.51L225.59,100.26A3.69,3.69,0,0,1,225.49,99.87Z"/><path class="cls-2" d="M149.19,26.33c-37.57,4-64.28,42.68-59.68,86.5S128.3,189,165.87,185s64.29-42.68,59.68-86.51S186.76,22.38,149.19,26.33ZM215,99.64c5.3,50.41-28.73,70.78-50.41,73.06-31.72,3.34-60.6-24-64.48-61s18.67-69.72,50.4-73S211.08,62.63,215,99.64Z"/><path class="cls-3" d="M150.31,37C117.81,40.45,94.69,74,98.68,111.87s33.57,65.88,66.07,62.47c22.2-2.34,57.06-23.21,51.63-74.85C212.39,61.58,182.81,33.61,150.31,37Zm54.77,63.65c4.39,41.72-23.78,58.58-41.72,60.47-26.26,2.76-50.16-19.84-53.38-50.47S125.44,53,151.7,50.21,201.86,70.05,205.08,100.68Z"/><circle class="cls-6" cx="249.7" cy="304.23" r="6.37"/></svg>
