<svg height="200" viewBox="0 0 52.916665 52.916667" width="200" xmlns="http://www.w3.org/2000/svg"><g transform="matrix(.57225431555 0 0 .57225431555 -17.41273727936 -17.98703809693)"><path d="m88.07 41.61s31.49-5.44 33.32-3.05 2.29 9.59 1.31 13.66c-.99 4.08-4.65 10.37-15.35 13.33-8.99 2.48-12.01 2.49-16.66 5.26-3.71 2.21-9.1 18.11-9.95 20.37s-7.04 11.12-19.99 9.29c-12.65-1.8-20.41-13.67-17.73-25.35s45.05-33.51 45.05-33.51z" fill="#a92813"/><path d="m65.12 70.75c-15.386149-12.25394-18.501424-5.115236-28.72 2.82 0 0-17.03 4.08-21.82-.99s-4.22-9.29-3.8-11.4 3.8-7.88 2.82-8.45c-.99-.56-7.18 4.22-8.02 10.56s1.25 11.62 4.79 15.49c4.61 5.03 13.34 5.88 18.41 5.46s10.17-2.08 10.17-2.08-.14 20.69-10 20.55c-7.46-.11-8.31-2.53-9.01-3.8s-1.43-2.32-1.06 1.72c.25 2.67 3.38 10.91 13.2 8.8 8.32-1.79 13.47-9.44 15.17-11.79 1.87-2.57 6.19-8.45 6.19-8.45s-1.67 11.43-1.31 19.52c.15 3.38 1.03 11.31 7.23 13.98 6.19 2.67 14.11-.67 15.52-6.02s-1.44-8.34-1.87-8.76-2.39 6.05-2.39 6.05-5.07 3.38-7.04.99.42-20.98.7-24.92 4.36-.14 5.77 1.83 3.7 6.86 7.18 10.28c5.74 5.65 11.97 8.1 20.82 7.42 9.22-.71 14.98-4.33 18.07-8.97 3.1-4.65 3.77-9.26 2.78-10.1s-7.74 7.29-9.15 8.41c-1.41 1.13-15.49 0-17.46 0s-2.39-3.52-2.39-3.52 8.02-2.11 10.84-4.22 10.56-6.55 11.12-19.15c.43-9.72 0-35.81.99-40.03s4.74-7.79 3.89-9.2-4.6.94-5.16 1.36-6.48 3.24-6.62 8.31-1.83 41.25-4.65 44.2c-2.82 2.96-11.97 8.87-17.03 8.17-5.07-.69-18.16-14.07-18.16-14.07z" fill="#ffa8a8"/><path d="m118.48 90.32c-1.69-.14-3.1 2.11-4.79 3.38s-5.07 4.5-13.94 4.22-14.78-10-14.78-10 2.82.28 6.05-.56c3.24-.84 8.38-3.59 11.61-9.43 3.85-6.94 2.99-24.07 3.03-31.68.05-10.51 3.47-16.1 4.79-17.88 2.25-3.05 5.82-4.79 5.96-5.77.14-.99-4.46-.42-7.09 1.13-2.92 1.72-4.36 3.66-4.36 3.66s-6.76-.7-10.42-.7-10.69.54-16.82 1.97c-7.53 1.76-13.16 6.05-14.71 6.34 0 0-5-4.97-13.23.7-8.59 5.91-2.39 18.44-2.39 18.44s-.231278 4.229274-2.481278 4.809274c-12.102333 26.209169 1.181786-1.319161-3.912889 8.353795 0 0-4.565833 3.586931-6.535833 4.006931s-7.32 1.41-12.25.39c-5.13-1.06-8.59-4.82-9.15-8.97-.48-3.53 1.83-9.71.56-10s-5.81 6.19-5.95 11.54 3.98 11.54 10.17 14.5 19.15.28 19.15.28-1.06 1.62-1.2 4.72-1.97 10.03-5.28 12.04c-2.27 1.38-4.29 1.83-5 0-.7-1.83 2.89-2.53 2.75-4.36s-3.1-2.29-5.91-.56c-1.9 1.16-5.07 5.35-3.1 9.85s6.86 6.09 12.25 4.65c8.04-2.15 17.32-17.03 20.27-19.57 2.96-2.53 4.93-1.83 4.93-1.83s-1.41 13.09-1.13 21.96 5.95 14.66 12.25 13.66c7.04-1.13 7.46-6.9 6.34-10-.99-2.71-4.72-3.73-5.77-2.96-1.37 1.01-.46 2.67.07 3.13 1.27 1.09.21 3.63-1.76 3.06-1.97-.56-.14-7.18.7-10.42s2.82-10.84 5.07-11.4 4.54 3.39 6.62 5.77c3.56 4.08 9.36 7.25 17.63 7.39 10.93.19 17.7-6.55 19.25-8.24 1.52-1.68 4.19-5.48 2.51-5.62zm-25.35-29.42c3.24-2.25 6.01-3.28 6.01-3.28s.09 11.54-4.32 17.5c-3.65 4.93-7.18 3.8-7.18 3.8s3.63-1.98 3.94-5.77c.42-5.21-5.07-6.19-5.07-6.19s3.8-4.1 6.62-6.06z" fill="#ff615e"/><path d="m112.09 53.93s11.59-3.45 10.46-11.9-9.67-10.32-9.67-10.32-1.22 4.41-1.03 10.18c.09 2.53.24 12.04.24 12.04z" fill="#ff615e"/><path d="m87.53 75.6c-1.29 2.06-3.49 2.49-5.09 1.49s-1.85-3.01-.56-5.07 3.93-2.99 5.54-1.99 1.4 3.51.11 5.57z" fill="#a52914"/><path d="m65.33 63.5c1.8-.11 1.2-1.9.84-4.29-.35-2.39-1.65-8.68 2.04-12.46 3.1-3.17 6.96-3.13 9.85-1.27 2.18 1.41 3.17 1.97 4.01.92.56-.7-.28-2.04-1.69-3.24-1.79-1.52-7.95-4.65-13.73.14-5.46 4.53-4.58 13.3-3.87 16.33.72 3.03 1.42 3.94 2.55 3.87z" fill="#a52914"/><path d="m47.66 35.13c-3.66 3.8-4.41 6.84-4.01 11.97.35 4.58 1.97 8.09 3.73 7.39 1.47-.59.84-3.31.35-4.72s-1.34-8.17 2.25-11.83 7.67-3.17 9.5-2.75 2.6.84 3.52-.21-.99-2.75-2.82-3.17-7.68-1.7-12.52 3.32z" fill="#a52914"/><path d="m82.01 57.66c0 2.92-2.19 5.85-5.07 5.7-2.82-.14-4.15-2.86-4.15-5.77s1.69-5.28 4.65-5.49c3.37-.24 4.57 2.64 4.57 5.56z" fill="#2c2b2d"/><g fill="#fcd4b0"><ellipse cx="108.76" cy="47.48" rx="2.21" ry="2.11" transform="matrix(.1584855 -.98736131 .98736131 .1584855 44.651101 147.333792)"/><ellipse cx="110.68" cy="33.5" rx="2.16" ry="1.88" transform="matrix(.35179264 -.93607796 .93607796 .35179264 40.39218 125.316454)"/><ellipse cx="108.76" cy="63.150002" rx="2.58" ry="2.67"/><ellipse cx="106.32" cy="78.940002" rx="2.78" ry="2.62" transform="matrix(.40549261 -.91409832 .91409832 .40549261 -8.955652 144.110035)"/><ellipse cx="110.01" cy="103.45" rx="2.11" ry="1.89" transform="matrix(.92019769 -.39145397 .39145397 .92019769 -31.719985 51.322076)"/><ellipse cx="97.580002" cy="106.7" rx="2.39" ry="2.25"/><ellipse cx="84.739998" cy="104.25" rx="2.3" ry="2.39"/><ellipse cx="60.900002" cy="120.82" rx="2.49" ry="2.44"/><ellipse cx="53.580002" cy="106.77" rx="1.74" ry="2.33" transform="matrix(.99769969 -.06778892 .06778892 .99769969 -7.114772 3.875842)"/><ellipse cx="40.619999" cy="102.57" rx="2.58" ry="2.3" transform="matrix(.73445282 -.67865975 .67865975 .73445282 -58.816818 54.801678)"/><ellipse cx="28.33" cy="108.25" rx="2.58" ry="2.35"/><ellipse cx="25.700001" cy="82.440002" rx="2.3" ry="2.06"/><ellipse cx="13.92" cy="79.050003" rx="2.16" ry="2.25" transform="matrix(.5 -.8660254 .8660254 .5 -61.499308 51.580074)"/><ellipse cx="6.9" cy="70.330002" rx="1.86" ry="2.16" transform="matrix(.93352412 -.35851459 .35851459 .93352412 -24.755515 7.149716)"/></g></g><g stroke-width="2.93981" transform="matrix(.34605616 0 0 .34605616 -51.44338581431 -33.19861764825)"><path d="m177.76242 136.05398h-3.26614c-1.51988-.0529-2.68699-.24106-4.4303-.30574-1.81093-.3763-4.02755-.48801-6.24417-1.17887-2.29305-.49976-4.66842-1.34937-7.16432-2.30187-1.19357-.57326-2.46945-1.09361-3.71887-1.71685-1.18475-.71144-2.46651-1.36114-3.68359-2.13137-2.38125-1.6022-4.77132-3.38372-6.86447-5.49745-1.02893-1.06715-2.13724-2.10491-2.99273-3.31317l-1.40229-1.75213-1.1818-1.87854c-1.6463-2.49003-2.72521-5.22405-3.68947-7.95808-.3175-1.40229-.71144-2.79283-.96132-4.19512l-.23519-2.11373-.13523-1.05245-.0353-.26164c.003-.14699-.0353 1.17298-.0206.59384v-.13229l.003-.17345.0118-.693796.0441-2.745787.0206-1.352315.13523-.858425c.23813-1.155348.11759-2.131366.54681-3.471922.52328-2.551759 1.39347-4.903611 2.31951-7.043796l1.49931-3.02213 1.66981-2.598796c.38512-.617361.79963-1.134768 1.20533-1.655116-.62031-5.265208-2.3401-10.765601-7.28193-11.812176-2.57527-.543865-5.18583-.173449-7.72289.682038-.39981.458611-.80257.934861-1.20238 1.449328l-2.77813 3.615972-2.68405 4.342107c-1.72273 3.122083-3.39549 6.67044-4.61551 10.662708-.73495 1.852083-1.11713 4.380324-1.60808 6.693958l-.32632 1.778588-.12935 1.346436-.27928 2.731088-.0706.690856-.0176.173449-.009.08526-.0265.723201.006.43215.0294 1.74331.097 3.53366c.18815 2.36067.58208 4.7478.97308 7.14669 1.09949 4.72134 2.60467 9.47796 4.88303 13.82889l1.70509 3.26907 1.9785 3.06917c1.27882 2.09021 2.82222 3.93053 4.33916 5.78261 3.06329 3.67477 6.52639 6.83213 10.04829 9.64847 1.78153 1.3729 3.62773 2.57822 5.40926 3.81588 1.82856 1.14065 3.68359 2.14019 5.47394 3.15737 3.66006 1.8315 7.2143 3.419 10.60979 4.51849 3.35433 1.2994 6.55284 1.87266 9.39271 2.63407 3.01625.51447 5.97958 1.00542 7.89046 1.21415l1.62278.14111c1.03089-7.72578 1.83802-17.14372 2.86342-28.28691z" fill="#af773f"/><path d="m272.33332 188.31799c.19991-.17345.42921-.2881.63794-.44685zm-112.57139-125.638866c-2.21524-1.785767-5.45884-1.436922-7.2437.779051-1.45521 1.805046-3.03389 3.060347-4.71253 3.865856l7.59648-9.433865c4.83922-6.151881 3.82779-15.052191-2.26842-19.961366-6.0962-4.909174-15.00748-3.999478-19.98597 2.040255l-8.44609 10.486319c-4.70371 5.841412-4.72134 15.107708.55562 20.267083.23519.296921.49683.576204.80551.826088 6.28533 5.059421 12.18553 7.087894 17.43016 7.087894 7.12906 0 13.04396-3.748264 17.04505-8.716551 1.78277-2.214501 1.4355-5.454406-.77611-7.240764z" fill="#e2a042"/></g><g transform="matrix(-.04037212 .06411956 -.06411956 -.04037212 58.057624 28.67408)"><path d="m279.13 285.92q-32.44 98.67-64.88 197.36a7.78 7.78 0 0 1 -2.86-1.1c-22.21-13.91 3.91-144.41 14.09-192.18l41.79-16.75z" fill="#999"/><path d="m370.65 30c-36.95-7.85-74.32 20.73-83.49 63.83s13.37 84.41 50.31 92.27 74.33-20.73 83.5-63.83-13.37-84.39-50.32-92.27zm39.91 90.06c-10.56 49.6-49.18 58.46-70.51 53.94-31.2-6.64-50.23-41.53-42.49-77.93s39.31-60.53 70.51-53.9 50.23 41.51 42.49 77.91z" fill="#414042"/><path d="m286.35 99.89c.26-1.2.59-2.39.74-3.61a1.84 1.84 0 0 0 0-.33 2.73 2.73 0 0 0 .92-2.21 16 16 0 0 1 .07-2.85c.09-.55.3-1 .39-1.58.34 10.58 2.93 34.84 20.92 57.24 24.55 30.56 59.29 34.67 65.92 35.33a33.92 33.92 0 0 0 -6.62 3.33c-10.89 5.81-24.85 14-37.83 27.49-30.2 31.38-38.4 67.85-41 84.25l-31.15-26.16 27.48-170.52a3.44 3.44 0 0 0 .16-.38z" fill="#414042"/><path d="m368.45 40.31c-31.81-6.76-64 17.84-71.88 55s11.5 72.68 43.31 79.44c21.74 4.62 61.14-4.41 71.88-54.95 7.89-37.16-11.51-72.73-43.31-79.49zm32.25 77.08c-8.68 40.84-40.51 48.14-58.08 44.4-25.7-5.46-41.37-34.19-35-64.18s32.38-49.86 58.08-44.4 41.38 34.2 35 64.18z" fill="#231f20"/><path d="m290.09 475.52c-1.55 4.64-3.63 7.91-6.35 9.49a8 8 0 0 1 -1.53.68 8.54 8.54 0 0 1 -1.37.31c0-.05 0-.1 0-.15q-22.11-76.14-44.24-152.29-6.88-23.56-13.71-47.06l12.29-12.26 41.18 18.2c7.48 42.34 25.07 149.12 13.73 183.08z" fill="#b3b3b3"/><path d="m290.09 475.52c-1.55 4.64-3.63 7.91-6.35 9.49a8 8 0 0 1 -1.53.68 7.52 7.52 0 0 1 -1.41.16q-22.11-76.14-44.24-152.29a9.68 9.68 0 0 1 2.61-1.19 9 9 0 0 1 1.33-.28 9.75 9.75 0 0 1 10.69 6.91l38.55 134.45a9.69 9.69 0 0 1 .35 2.07z" fill="#ccc"/><path d="m225.49 99.87c-.22-1.2-.51-2.41-.62-3.63 0-.11 0-.22 0-.34a2.74 2.74 0 0 1 -.85-2.23 15.09 15.09 0 0 0 0-2.85c-.07-.56-.26-1.06-.33-1.6-.71 10.56-4.15 34.72-22.91 56.48-25.6 29.68-60.46 32.58-67.11 33a34.72 34.72 0 0 1 6.51 3.56c10.67 6.19 24.34 14.87 36.83 28.8 29.09 32.41 36 69.14 38 85.63l4-3.11.56-.44 27.51-21.51-21.49-171.37a3.69 3.69 0 0 1 -.1-.39z" fill="#414042"/><path d="m149.19 26.33c-37.57 4-64.28 42.68-59.68 86.5s38.79 76.17 76.36 72.17 64.29-42.68 59.68-86.51-38.79-76.11-76.36-72.16zm65.81 73.31c5.3 50.41-28.73 70.78-50.41 73.06-31.72 3.34-60.6-24-64.48-61s18.67-69.72 50.4-73 60.57 23.93 64.49 60.94z" fill="#414042"/><path d="m150.31 37c-32.5 3.45-55.62 37-51.63 74.87s33.57 65.88 66.07 62.47c22.2-2.34 57.06-23.21 51.63-74.85-3.99-37.91-33.57-65.88-66.07-62.49zm54.77 63.65c4.39 41.72-23.78 58.58-41.72 60.47-26.26 2.76-50.16-19.84-53.38-50.47s15.46-57.65 41.72-60.44 50.16 19.84 53.38 50.47z" fill="#231f20"/><circle cx="249.7" cy="304.23001" fill="#808080" r="6.37"/></g></svg>
