<?xml version="1.0" encoding="UTF-8" standalone="no"?>
<!-- Created with Inkscape (http://www.inkscape.org/) -->

<svg
   width="255.65781"
   height="279.40903"
   viewBox="0 0 67.642792 73.926972"
   version="1.1"
   id="svg1"
   xml:space="preserve"
   inkscape:version="1.3.2 (091e20ef0f, 2023-11-25)"
   sodipodi:docname="snip-logo.svg"
   inkscape:export-filename="snip-logo.png"
   inkscape:export-xdpi="96"
   inkscape:export-ydpi="96"
   xmlns:inkscape="http://www.inkscape.org/namespaces/inkscape"
   xmlns:sodipodi="http://sodipodi.sourceforge.net/DTD/sodipodi-0.dtd"
   xmlns="http://www.w3.org/2000/svg"
   xmlns:svg="http://www.w3.org/2000/svg"><sodipodi:namedview
     id="namedview1"
     pagecolor="#ffffff"
     bordercolor="#111111"
     borderopacity="1"
     inkscape:showpageshadow="0"
     inkscape:pageopacity="0"
     inkscape:pagecheckerboard="1"
     inkscape:deskcolor="#d1d1d1"
     inkscape:document-units="px"
     inkscape:zoom="0.74297138"
     inkscape:cx="440.7976"
     inkscape:cy="352.63808"
     inkscape:window-width="1920"
     inkscape:window-height="1032"
     inkscape:window-x="0"
     inkscape:window-y="0"
     inkscape:window-maximized="1"
     inkscape:current-layer="layer1" /><defs
     id="defs1"><style
       id="style1">.cls-1{fill:#999;}.cls-2{fill:#414042;}.cls-3{fill:#231f20;}.cls-4{fill:#b3b3b3;}.cls-5{fill:#ccc;}.cls-6{fill:gray;}</style></defs><g
     inkscape:label="Layer 1"
     inkscape:groupmode="layer"
     id="layer1"
     transform="translate(11.522432,-107.42111)"><g
       id="g11"
       transform="matrix(0.34605616,0,0,0.34605616,-13.39789,104.04917)"><g
         id="g1"
         transform="matrix(1.6536458,0,0,1.6536458,-2.8469263,18.932106)"><path
           d="m 88.07,41.61 c 0,0 31.49,-5.44 33.32,-3.05 1.83,2.39 2.29,9.59 1.31,13.66 -0.99,4.08 -4.65,10.37 -15.35,13.33 -8.99,2.48 -12.01,2.49 -16.66,5.26 -3.71,2.21 -9.1,18.11 -9.95,20.37 -0.85,2.26 -7.04,11.12 -19.99,9.29 C 48.1,98.67 40.34,86.8 43.02,75.12 45.7,63.44 88.07,41.61 88.07,41.61 Z"
           fill="#a92813"
           id="path1" /><path
           d="M 65.12,70.75 C 49.733851,58.49606 46.618576,65.634764 36.4,73.57 c 0,0 -17.03,4.08 -21.82,-0.99 -4.79,-5.07 -4.22,-9.29 -3.8,-11.4 0.42,-2.11 3.8,-7.88 2.82,-8.45 -0.99,-0.56 -7.18,4.22 -8.02,10.56 -0.84,6.34 1.25,11.62 4.79,15.49 4.61,5.03 13.34,5.88 18.41,5.46 5.07,-0.42 10.17,-2.08 10.17,-2.08 0,0 -0.14,20.69 -10,20.55 -7.46,-0.11 -8.31,-2.53 -9.01,-3.8 -0.7,-1.27 -1.43,-2.32 -1.06,1.72 0.25,2.67 3.38,10.91 13.2,8.8 8.32,-1.79 13.47,-9.44 15.17,-11.79 1.87,-2.57 6.19,-8.45 6.19,-8.45 0,0 -1.67,11.43 -1.31,19.52 0.15,3.38 1.03,11.31 7.23,13.98 6.19,2.67 14.11,-0.67 15.52,-6.02 1.41,-5.35 -1.44,-8.34 -1.87,-8.76 -0.43,-0.42 -2.39,6.05 -2.39,6.05 0,0 -5.07,3.38 -7.04,0.99 -1.97,-2.39 0.42,-20.98 0.7,-24.92 0.28,-3.94 4.36,-0.14 5.77,1.83 1.41,1.97 3.7,6.86 7.18,10.28 5.74,5.65 11.97,8.1 20.82,7.42 9.22,-0.71 14.98,-4.33 18.07,-8.97 3.1,-4.65 3.77,-9.26 2.78,-10.1 -0.99,-0.84 -7.74,7.29 -9.15,8.41 -1.41,1.13 -15.49,0 -17.46,0 -1.97,0 -2.39,-3.52 -2.39,-3.52 0,0 8.02,-2.11 10.84,-4.22 2.82,-2.11 10.56,-6.55 11.12,-19.15 0.43,-9.72 0,-35.81 0.99,-40.03 0.99,-4.22 4.74,-7.79 3.89,-9.2 -0.85,-1.41 -4.6,0.94 -5.16,1.36 -0.56,0.42 -6.48,3.24 -6.62,8.31 -0.14,5.07 -1.83,41.25 -4.65,44.2 -2.82,2.96 -11.97,8.87 -17.03,8.17 C 78.21,84.13 65.12,70.75 65.12,70.75 Z"
           fill="#ffa8a8"
           id="path2"
           sodipodi:nodetypes="ccsscscsccsccccccsscssscccscscscssssccc" /><path
           d="m 118.48,90.32 c -1.69,-0.14 -3.1,2.11 -4.79,3.38 -1.69,1.27 -5.07,4.5 -13.94,4.22 -8.87,-0.28 -14.78,-10 -14.78,-10 0,0 2.82,0.28 6.05,-0.56 3.24,-0.84 8.38,-3.59 11.61,-9.43 3.85,-6.94 2.99,-24.07 3.03,-31.68 0.05,-10.51 3.47,-16.1 4.79,-17.88 2.25,-3.05 5.82,-4.79 5.96,-5.77 0.14,-0.99 -4.46,-0.42 -7.09,1.13 -2.92,1.72 -4.36,3.66 -4.36,3.66 0,0 -6.76,-0.7 -10.42,-0.7 -3.66,0 -10.69,0.54 -16.82,1.97 -7.53,1.76 -13.16,6.05 -14.71,6.34 0,0 -5,-4.97 -13.23,0.7 -8.59,5.91 -2.39,18.44 -2.39,18.44 0,0 -0.231278,4.229274 -2.481278,4.809274 -12.102333,26.209169 1.181786,-1.319161 -3.912889,8.353795 0,0 -4.565833,3.586931 -6.535833,4.006931 -1.97,0.42 -7.32,1.41 -12.25,0.39 -5.13,-1.06 -8.59,-4.82 -9.15,-8.97 -0.48,-3.53 1.83,-9.71 0.56,-10 -1.27,-0.29 -5.81,6.19 -5.95,11.54 -0.14,5.35 3.98,11.54 10.17,14.5 6.19,2.96 19.15,0.28 19.15,0.28 0,0 -1.06,1.62 -1.2,4.72 -0.14,3.1 -1.97,10.03 -5.28,12.04 -2.27,1.38 -4.29,1.83 -5,0 -0.7,-1.83 2.89,-2.53 2.75,-4.36 -0.14,-1.83 -3.1,-2.29 -5.91,-0.56 -1.9,1.16 -5.07,5.35 -3.1,9.85 1.97,4.5 6.86,6.09 12.25,4.65 8.04,-2.15 17.32,-17.03 20.27,-19.57 2.96,-2.53 4.93,-1.83 4.93,-1.83 0,0 -1.41,13.09 -1.13,21.96 0.28,8.87 5.95,14.66 12.25,13.66 7.04,-1.13 7.46,-6.9 6.34,-10 -0.99,-2.71 -4.72,-3.73 -5.77,-2.96 -1.37,1.01 -0.46,2.67 0.07,3.13 1.27,1.09 0.21,3.63 -1.76,3.06 -1.97,-0.56 -0.14,-7.18 0.7,-10.42 0.84,-3.24 2.82,-10.84 5.07,-11.4 2.25,-0.56 4.54,3.39 6.62,5.77 3.56,4.08 9.36,7.25 17.63,7.39 10.93,0.19 17.7,-6.55 19.25,-8.24 1.52,-1.68 4.19,-5.48 2.51,-5.62 z M 93.13,60.9 c 3.24,-2.25 6.01,-3.28 6.01,-3.28 0,0 0.09,11.54 -4.32,17.5 -3.65,4.93 -7.18,3.8 -7.18,3.8 0,0 3.63,-1.98 3.94,-5.77 0.42,-5.21 -5.07,-6.19 -5.07,-6.19 0,0 3.8,-4.1 6.62,-6.06 z"
           fill="#ff615e"
           id="path3"
           sodipodi:nodetypes="cssccccccccsccccccsccssscsccscscccscccccssccccccccccc" /><path
           d="m 112.09,53.93 c 0,0 11.59,-3.45 10.46,-11.9 -1.13,-8.45 -9.67,-10.32 -9.67,-10.32 0,0 -1.22,4.41 -1.03,10.18 0.09,2.53 0.24,12.04 0.24,12.04 z"
           fill="#ff615e"
           id="path4" /><path
           d="m 87.53,75.6 c -1.29,2.06 -3.49,2.49 -5.09,1.49 -1.6,-1 -1.85,-3.01 -0.56,-5.07 1.29,-2.06 3.93,-2.99 5.54,-1.99 1.61,1 1.4,3.51 0.11,5.57 z"
           fill="#a52914"
           id="path5" /><path
           d="m 65.33,63.5 c 1.8,-0.11 1.2,-1.9 0.84,-4.29 -0.35,-2.39 -1.65,-8.68 2.04,-12.46 3.1,-3.17 6.96,-3.13 9.85,-1.27 2.18,1.41 3.17,1.97 4.01,0.92 0.56,-0.7 -0.28,-2.04 -1.69,-3.24 -1.79,-1.52 -7.95,-4.65 -13.73,0.14 -5.46,4.53 -4.58,13.3 -3.87,16.33 0.72,3.03 1.42,3.94 2.55,3.87 z"
           fill="#a52914"
           id="path6" /><path
           d="m 47.66,35.13 c -3.66,3.8 -4.41,6.84 -4.01,11.97 0.35,4.58 1.97,8.09 3.73,7.39 1.47,-0.59 0.84,-3.31 0.35,-4.72 -0.49,-1.41 -1.34,-8.17 2.25,-11.83 3.59,-3.66 7.67,-3.17 9.5,-2.75 1.83,0.42 2.6,0.84 3.52,-0.21 0.92,-1.05 -0.99,-2.75 -2.82,-3.17 -1.83,-0.42 -7.68,-1.7 -12.52,3.32 z"
           fill="#a52914"
           id="path7" /><path
           d="m 82.01,57.66 c 0,2.92 -2.19,5.85 -5.07,5.7 -2.82,-0.14 -4.15,-2.86 -4.15,-5.77 0,-2.91 1.69,-5.28 4.65,-5.49 3.37,-0.24 4.57,2.64 4.57,5.56 z"
           fill="#2c2b2d"
           id="path8" /><ellipse
           transform="rotate(-80.881,108.76,47.472)"
           cx="108.76"
           cy="47.48"
           rx="2.21"
           ry="2.1099999"
           fill="#fcd4b0"
           id="ellipse8" /><ellipse
           transform="rotate(-69.403,110.681,33.493)"
           cx="110.68"
           cy="33.5"
           rx="2.1600001"
           ry="1.88"
           fill="#fcd4b0"
           id="ellipse9" /><ellipse
           cx="108.76"
           cy="63.150002"
           rx="2.5799999"
           ry="2.6700001"
           fill="#fcd4b0"
           id="ellipse10" /><ellipse
           transform="rotate(-66.078,106.312,78.94)"
           cx="106.32"
           cy="78.940002"
           rx="2.78"
           ry="2.6199999"
           fill="#fcd4b0"
           id="ellipse11" /><ellipse
           transform="rotate(-23.045,110.015,103.459)"
           cx="110.01"
           cy="103.45"
           rx="2.1099999"
           ry="1.89"
           fill="#fcd4b0"
           id="ellipse12" /><ellipse
           cx="97.580002"
           cy="106.7"
           rx="2.3900001"
           ry="2.25"
           fill="#fcd4b0"
           id="ellipse13" /><ellipse
           cx="84.739998"
           cy="104.25"
           rx="2.3"
           ry="2.3900001"
           fill="#fcd4b0"
           id="ellipse14" /><ellipse
           cx="60.900002"
           cy="120.82"
           rx="2.49"
           ry="2.4400001"
           fill="#fcd4b0"
           id="ellipse15" /><ellipse
           transform="rotate(-3.887,53.552,106.772)"
           cx="53.580002"
           cy="106.77"
           rx="1.74"
           ry="2.3299999"
           fill="#fcd4b0"
           id="ellipse16" /><ellipse
           transform="rotate(-42.739,40.62,102.56)"
           cx="40.619999"
           cy="102.57"
           rx="2.5799999"
           ry="2.3"
           fill="#fcd4b0"
           id="ellipse17" /><ellipse
           cx="28.33"
           cy="108.25"
           rx="2.5799999"
           ry="2.3499999"
           fill="#fcd4b0"
           id="ellipse18" /><ellipse
           cx="25.700001"
           cy="82.440002"
           rx="2.3"
           ry="2.0599999"
           fill="#fcd4b0"
           id="ellipse19" /><ellipse
           transform="rotate(-60,13.92,79.05)"
           cx="13.92"
           cy="79.050003"
           rx="2.1600001"
           ry="2.25"
           fill="#fcd4b0"
           id="ellipse20" /><ellipse
           transform="rotate(-21.009,6.902,70.33)"
           cx="6.9000001"
           cy="70.330002"
           rx="1.86"
           ry="2.1600001"
           fill="#fcd4b0"
           id="ellipse21" /></g><g
         id="g10"
         transform="translate(-101.18544,-25.024862)"><path
           fill="#af773f"
           d="m 177.76242,136.05398 h -3.26614 c -1.51988,-0.0529 -2.68699,-0.24106 -4.4303,-0.30574 -1.81093,-0.3763 -4.02755,-0.48801 -6.24417,-1.17887 -2.29305,-0.49976 -4.66842,-1.34937 -7.16432,-2.30187 -1.19357,-0.57326 -2.46945,-1.09361 -3.71887,-1.71685 -1.18475,-0.71144 -2.46651,-1.36114 -3.68359,-2.13137 -2.38125,-1.6022 -4.77132,-3.38372 -6.86447,-5.49745 -1.02893,-1.06715 -2.13724,-2.10491 -2.99273,-3.31317 l -1.40229,-1.75213 -1.1818,-1.87854 c -1.6463,-2.49003 -2.72521,-5.22405 -3.68947,-7.95808 -0.3175,-1.40229 -0.71144,-2.79283 -0.96132,-4.19512 l -0.23519,-2.11373 -0.13523,-1.05245 -0.0353,-0.26164 c 0.003,-0.14699 -0.0353,1.17298 -0.0206,0.59384 v -0.13229 l 0.003,-0.17345 0.0118,-0.693796 0.0441,-2.745787 0.0206,-1.352315 0.13523,-0.858425 c 0.23813,-1.155348 0.11759,-2.131366 0.54681,-3.471922 0.52328,-2.551759 1.39347,-4.903611 2.31951,-7.043796 l 1.49931,-3.02213 1.66981,-2.598796 c 0.38512,-0.617361 0.79963,-1.134768 1.20533,-1.655116 -0.62031,-5.265208 -2.3401,-10.765601 -7.28193,-11.812176 -2.57527,-0.543865 -5.18583,-0.173449 -7.72289,0.682038 -0.39981,0.458611 -0.80257,0.934861 -1.20238,1.449328 l -2.77813,3.615972 -2.68405,4.342107 c -1.72273,3.122083 -3.39549,6.67044 -4.61551,10.662708 -0.73495,1.852083 -1.11713,4.380324 -1.60808,6.693958 l -0.32632,1.778588 -0.12935,1.346436 -0.27928,2.731088 -0.0706,0.690856 -0.0176,0.173449 -0.009,0.08526 -0.0265,0.723201 0.006,0.43215 0.0294,1.74331 0.097,3.53366 c 0.18815,2.36067 0.58208,4.7478 0.97308,7.14669 1.09949,4.72134 2.60467,9.47796 4.88303,13.82889 l 1.70509,3.26907 1.9785,3.06917 c 1.27882,2.09021 2.82222,3.93053 4.33916,5.78261 3.06329,3.67477 6.52639,6.83213 10.04829,9.64847 1.78153,1.3729 3.62773,2.57822 5.40926,3.81588 1.82856,1.14065 3.68359,2.14019 5.47394,3.15737 3.66006,1.8315 7.2143,3.419 10.60979,4.51849 3.35433,1.2994 6.55284,1.87266 9.39271,2.63407 3.01625,0.51447 5.97958,1.00542 7.89046,1.21415 l 1.62278,0.14111 c 1.03089,-7.72578 1.83802,-17.14372 2.86342,-28.28691 z"
           id="path1-3"
           style="stroke-width:2.93981"
           sodipodi:nodetypes="cccccccccccccccccccccccccccccccccccccccccccccccccccccccccc" /><path
           fill="#e2a042"
           d="m 272.33332,188.31799 c 0.19991,-0.17345 0.42921,-0.2881 0.63794,-0.44685 z M 159.76193,62.679124 c -2.21524,-1.785767 -5.45884,-1.436922 -7.2437,0.779051 -1.45521,1.805046 -3.03389,3.060347 -4.71253,3.865856 l 7.59648,-9.433865 c 4.83922,-6.151881 3.82779,-15.052191 -2.26842,-19.961366 -6.0962,-4.909174 -15.00748,-3.999478 -19.98597,2.040255 l -8.44609,10.486319 c -4.70371,5.841412 -4.72134,15.107708 0.55562,20.267083 0.23519,0.296921 0.49683,0.576204 0.80551,0.826088 6.28533,5.059421 12.18553,7.087894 17.43016,7.087894 7.12906,0 13.04396,-3.748264 17.04505,-8.716551 1.78277,-2.214501 1.4355,-5.454406 -0.77611,-7.240764 z"
           id="path3-7"
           style="stroke-width:2.93981"
           sodipodi:nodetypes="cccccccsccccscc" /></g></g><g
       id="g3"
       transform="matrix(-0.04037212,0.06411956,-0.06411956,-0.04037212,61.087275,157.26186)"><path
         class="cls-1"
         d="m 279.13,285.92 q -32.44,98.67 -64.88,197.36 a 7.78,7.78 0 0 1 -2.86,-1.1 C 189.18,468.27 215.3,337.77 225.48,290 l 41.79,-16.75 z"
         id="path1-6" /><path
         class="cls-2"
         d="m 370.65,30 c -36.95,-7.85 -74.32,20.73 -83.49,63.83 -9.17,43.1 13.37,84.41 50.31,92.27 36.94,7.86 74.33,-20.73 83.5,-63.83 C 430.14,79.17 407.6,37.88 370.65,30 Z m 39.91,90.06 c -10.56,49.6 -49.18,58.46 -70.51,53.94 -31.2,-6.64 -50.23,-41.53 -42.49,-77.93 7.74,-36.4 39.31,-60.53 70.51,-53.9 31.2,6.63 50.23,41.51 42.49,77.91 z"
         id="path2-2" /><path
         class="cls-2"
         d="m 286.35,99.89 c 0.26,-1.2 0.59,-2.39 0.74,-3.61 a 1.84,1.84 0 0 0 0,-0.33 2.73,2.73 0 0 0 0.92,-2.21 16,16 0 0 1 0.07,-2.85 c 0.09,-0.55 0.3,-1 0.39,-1.58 v 0 c 0.34,10.58 2.93,34.84 20.92,57.24 24.55,30.56 59.29,34.67 65.92,35.33 a 33.92,33.92 0 0 0 -6.62,3.33 c -10.89,5.81 -24.85,14 -37.83,27.49 -30.2,31.38 -38.4,67.85 -41,84.25 l -31.15,-26.16 27.48,-170.52 a 3.44,3.44 0 0 0 0.16,-0.38 z"
         id="path3-9" /><path
         class="cls-3"
         d="m 368.45,40.31 c -31.81,-6.76 -64,17.84 -71.88,55 -7.88,37.16 11.5,72.68 43.31,79.44 21.74,4.62 61.14,-4.41 71.88,-54.95 7.89,-37.16 -11.51,-72.73 -43.31,-79.49 z m 32.25,77.08 c -8.68,40.84 -40.51,48.14 -58.08,44.4 -25.7,-5.46 -41.37,-34.19 -35,-64.18 6.37,-29.99 32.38,-49.86 58.08,-44.4 25.7,5.46 41.38,34.2 35,64.18 z"
         id="path4-1" /><path
         class="cls-4"
         d="m 290.09,475.52 c -1.55,4.64 -3.63,7.91 -6.35,9.49 a 8,8 0 0 1 -1.53,0.68 8.54,8.54 0 0 1 -1.37,0.31 c 0,-0.05 0,-0.1 0,-0.15 Q 258.73,409.71 236.6,333.56 229.72,310 222.89,286.5 l 12.29,-12.26 41.18,18.2 c 7.48,42.34 25.07,149.12 13.73,183.08 z"
         id="path5-2" /><path
         class="cls-5"
         d="m 290.09,475.52 c -1.55,4.64 -3.63,7.91 -6.35,9.49 a 8,8 0 0 1 -1.53,0.68 7.52,7.52 0 0 1 -1.41,0.16 Q 258.69,409.71 236.56,333.56 a 9.68,9.68 0 0 1 2.61,-1.19 9,9 0 0 1 1.33,-0.28 9.75,9.75 0 0 1 10.69,6.91 l 38.55,134.45 a 9.69,9.69 0 0 1 0.35,2.07 z"
         id="path6-7" /><path
         class="cls-2"
         d="m 225.49,99.87 c -0.22,-1.2 -0.51,-2.41 -0.62,-3.63 0,-0.11 0,-0.22 0,-0.34 a 2.74,2.74 0 0 1 -0.85,-2.23 15.09,15.09 0 0 0 0,-2.85 c -0.07,-0.56 -0.26,-1.06 -0.33,-1.6 v 0 c -0.71,10.56 -4.15,34.72 -22.91,56.48 -25.6,29.68 -60.46,32.58 -67.11,33 a 34.72,34.72 0 0 1 6.51,3.56 c 10.67,6.19 24.34,14.87 36.83,28.8 29.09,32.41 36,69.14 38,85.63 l 4,-3.11 0.56,-0.44 27.51,-21.51 -21.49,-171.37 a 3.69,3.69 0 0 1 -0.1,-0.39 z"
         id="path7-0" /><path
         class="cls-2"
         d="m 149.19,26.33 c -37.57,4 -64.28,42.68 -59.68,86.5 4.6,43.82 38.79,76.17 76.36,72.17 37.57,-4 64.29,-42.68 59.68,-86.51 C 220.94,54.66 186.76,22.38 149.19,26.33 Z M 215,99.64 c 5.3,50.41 -28.73,70.78 -50.41,73.06 -31.72,3.34 -60.6,-24 -64.48,-61 -3.88,-37 18.67,-69.72 50.4,-73 31.73,-3.28 60.57,23.93 64.49,60.94 z"
         id="path8-9" /><path
         class="cls-3"
         d="m 150.31,37 c -32.5,3.45 -55.62,37 -51.63,74.87 3.99,37.87 33.57,65.88 66.07,62.47 22.2,-2.34 57.06,-23.21 51.63,-74.85 C 212.39,61.58 182.81,33.61 150.31,37 Z m 54.77,63.65 c 4.39,41.72 -23.78,58.58 -41.72,60.47 -26.26,2.76 -50.16,-19.84 -53.38,-50.47 -3.22,-30.63 15.46,-57.65 41.72,-60.44 26.26,-2.79 50.16,19.84 53.38,50.47 z"
         id="path9" /><circle
         class="cls-6"
         cx="249.7"
         cy="304.23001"
         r="6.3699999"
         id="circle9" /></g></g></svg>
